<?xml version="1.0" encoding="iso-8859-1"?>
<!-- Generator: Adobe Illustrator 18.0.0, SVG Export Plug-In . SVG Version: 6.00 Build 0)  -->
<!DOCTYPE svg PUBLIC "-//W3C//DTD SVG 1.1//EN" "http://www.w3.org/Graphics/SVG/1.1/DTD/svg11.dtd">
<svg version="1.1" id="Capa_1" xmlns="http://www.w3.org/2000/svg" xmlns:xlink="http://www.w3.org/1999/xlink" x="0px" y="0px"
	 viewBox="0 0 44 44" style="enable-background:new 0 0 44 44;" xml:space="preserve">
<path style="fill:#070707;" d="M22,0C9.869,0,0,9.869,0,22s9.869,22,22,22s22-9.869,22-22S34.131,0,22,0z M29.5,11
	c1.933,0,3.5,1.567,3.5,3.5S31.433,18,29.5,18S26,16.433,26,14.5S27.567,11,29.5,11z M13.5,11c1.933,0,3.5,1.567,3.5,3.5
	S15.433,18,13.5,18S10,16.433,10,14.5S11.567,11,13.5,11z M22,37c-6.617,0-12-5.383-12-12c0-0.552,0.448-1,1-1s1,0.448,1,1
	c0,5.514,4.486,10,10,10s10-4.486,10-10c0-0.552,0.448-1,1-1s1,0.448,1,1C34,31.617,28.617,37,22,37z"/>
<g>
</g>
<g>
</g>
<g>
</g>
<g>
</g>
<g>
</g>
<g>
</g>
<g>
</g>
<g>
</g>
<g>
</g>
<g>
</g>
<g>
</g>
<g>
</g>
<g>
</g>
<g>
</g>
<g>
</g>
</svg>
